<svg xmlns="http://www.w3.org/2000/svg" version="1.1" xmlns:xlink="http://www.w3.org/1999/xlink" xmlns:svgjs="http://svgjs.dev/svgjs" width="1500" height="234" viewBox="0 0 1500 234"><g transform="matrix(1,0,0,1,-0.9090909090909918,-0.7948050697688984)"><svg viewBox="0 0 396 62" data-background-color="#ffffff" preserveAspectRatio="xMidYMid meet" height="234" width="1500" xmlns="http://www.w3.org/2000/svg" xmlns:xlink="http://www.w3.org/1999/xlink"><g id="tight-bounds" transform="matrix(1,0,0,1,0.2400000000000091,0.21072204244538284)"><svg viewBox="0 0 395.52 61.57855582075291" height="61.57855582075291" width="395.52"><g><svg viewBox="0 0 500.5399452515319 77.92912358208956" height="61.57855582075291" width="395.52"><g transform="matrix(1,0,0,1,105.0199452515319,10.770233432835823)"><svg viewBox="0 0 395.52 56.38865671641791" height="56.38865671641791" width="395.52"><g id="textblocktransform"><svg viewBox="0 0 395.52 56.38865671641791" height="56.38865671641791" width="395.52" id="textblock"><g><svg viewBox="0 0 395.52 56.38865671641791" height="56.38865671641791" width="395.52"><g transform="matrix(1,0,0,1,0,0)"><svg width="395.52" viewBox="2.75 -34.8 322.57 45.849999999999994" height="56.38865671641791" data-palette-color="#03424c"><g class="wordmark-text-0" data-fill-palette-color="primary" id="text-0"><path d="M8.2 0.4L4.7 0.4Q4 0.4 3.58-0.2 3.15-0.8 2.95-1.75 2.75-2.7 2.75-3.65L2.75-3.65Q2.75-5.7 3-7.6 3.25-9.5 3.45-11.7L3.45-11.7 5.85-34.75 9.35-34.75Q10.65-34.75 11.08-33.77 11.5-32.8 11.5-31.45L11.5-31.45Q11.5-30.25 11.4-29.3 11.3-28.35 11.13-27 10.95-25.65 10.7-23.3L10.7-23.3 8.2 0.4ZM49.4 0.5L45.75 0.5Q45.2 0.5 44.95-0.03 44.7-0.55 44.65-1.2 44.6-1.85 44.6-2.25L44.6-2.25Q44.6-2.95 44.7-4.05 44.8-5.15 44.95-6.38 45.1-7.6 45.25-8.5L45.25-8.5 46.1-13.7Q46.25-14.7 46.4-15.58 46.55-16.45 46.55-17.45L46.55-17.45Q46.55-18.2 46.25-18.6 45.95-19 45.45-19L45.45-19Q44.8-19 43.3-17.75 41.8-16.5 40.1-14.2 38.4-11.9 37-8.65 35.6-5.4 35.2-1.4L35.2-1.4 34.1-8.75Q36.15-14.55 38.67-18 41.2-21.45 43.7-22.98 46.2-24.5 48.05-24.5L48.05-24.5Q49.6-24.5 50.52-23.95 51.45-23.4 51.9-22.35 52.35-21.3 52.35-19.85L52.35-19.85Q52.35-18.8 52.17-17.63 52-16.45 51.8-15.15L51.8-15.15 49.4 0.5ZM16.05 0.7L16.05 0.7Q15.4 0.7 15.07 0.48 14.75 0.25 14.72-0.7 14.7-1.65 14.95-3.75L14.95-3.75 17.3-24.55 20.8-24.55Q21.8-24.55 22.27-23.45 22.75-22.35 22.75-20.95L22.75-20.95Q22.75-20.3 22.37-18.93 22-17.55 21.5-16.03 21-14.5 20.6-13.35L20.6-13.35 19.3-9.25 21.15-9.55 20.3-1.4Q20.25-0.9 19.72-0.5 19.2-0.1 18.5 0.18 17.8 0.45 17.12 0.58 16.45 0.7 16.05 0.7ZM30.8 0.7L30.8 0.7Q29.9 0.7 29.7 0.35 29.5 0 29.5-0.85L29.5-0.85Q29.5-1.6 29.67-3.3 29.85-5 30.45-8.5L30.45-8.5 31.35-13.65Q31.55-14.65 31.67-15.63 31.8-16.6 31.8-17.6L31.8-17.6Q31.8-18.3 31.55-18.65 31.3-19 30.75-19L30.75-19Q30.05-19 28.5-17.75 26.95-16.5 25.22-14.2 23.5-11.9 22.1-8.65 20.7-5.4 20.3-1.4L20.3-1.4 19.1-8.75Q20.6-13.1 22.5-16.1 24.4-19.1 26.35-20.95 28.3-22.8 30.07-23.65 31.85-24.5 33.15-24.5L33.15-24.5Q34.8-24.5 35.72-23.9 36.65-23.3 37.02-22.33 37.4-21.35 37.4-20.3L37.4-20.3Q37.4-19.05 37-17.7 36.6-16.35 35.92-14.43 35.25-12.5 34.45-9.5L34.45-9.5 36.1-10.1 35.2-1.4Q35.15-0.9 34.65-0.5 34.15-0.1 33.42 0.15 32.7 0.4 31.97 0.55 31.25 0.7 30.8 0.7ZM60.8 0.8L60.8 0.8Q58 0.8 56.8-1.48 55.6-3.75 55.6-7.85L55.6-7.85Q55.6-11.5 56.67-14.55 57.75-17.6 59.6-19.83 61.45-22.05 63.9-23.28 66.34-24.5 69.09-24.5L69.09-24.5Q71.25-24.5 73.02-23.93 74.8-23.35 76.05-22.75L76.05-22.75 74.59-17.5Q73.25-18.4 71.57-19.15 69.9-19.9 68.47-20.33 67.05-20.75 66.34-20.75L66.34-20.75Q64.95-20.75 63.77-19.38 62.6-18 61.92-15.58 61.25-13.15 61.25-10L61.25-10Q61.25-7.1 61.67-5.6 62.1-4.1 63.05-4.1L63.05-4.1Q63.7-4.1 65.25-5.58 66.8-7.05 69-10.5 71.2-13.95 73.65-19.85L73.65-19.85 75.05-15.4Q72.34-9.4 69.9-5.85 67.45-2.3 65.2-0.75 62.95 0.8 60.8 0.8ZM76.25 0.5L72.75 0.5Q71.75 0.5 71.55-0.48 71.34-1.45 71.34-2.55L71.34-2.55Q71.34-3.4 71.57-4.65 71.8-5.9 72.15-7.35 72.5-8.8 72.9-10.2L72.9-10.2 74-13.95 72.55-15.25 73.75-22.8Q75.34-23.05 76.57-23.45 77.8-23.85 78.62-24.15 79.45-24.45 79.8-24.45L79.8-24.45Q80.34-24.45 80.34-23.85L80.34-23.85Q80.34-23.6 79.72-21.73 79.09-19.85 78.37-16.95 77.65-14.05 77.3-10.65L77.3-10.65 76.25 0.5ZM90.69 11.05L90.69 11.05Q88.29 11.05 86.32 10.33 84.34 9.6 83.17 8.05 81.99 6.5 81.99 4L81.99 4Q81.99 3.15 82.54 3.15L82.54 3.15Q82.79 3.15 83.19 3.35 83.59 3.55 84.24 3.9L84.24 3.9Q85.14 4.4 86.67 5.18 88.19 5.95 89.84 6.55 91.49 7.15 92.74 7.15L92.74 7.15Q93.54 7.15 94.27 6.8 94.99 6.45 95.67 5.48 96.34 4.5 96.94 2.68 97.54 0.85 98.09-2.1L98.09-2.1 100.59-15.65 99.69-16.85 99.74-23.25Q102.94-23.65 104.39-24.05 105.84-24.45 106.39-24.45L106.39-24.45Q106.89-24.45 106.89-23.85L106.89-23.85Q106.89-23.6 106.27-21.75 105.64-19.9 104.94-17 104.24-14.1 104.09-10.5L104.09-10.5 103.74-1.5Q103.59 2 102.37 4.4 101.14 6.8 99.19 8.28 97.24 9.75 95.02 10.4 92.79 11.05 90.69 11.05ZM87.54 0.45L87.54 0.45Q84.74 0.45 83.54-1.83 82.34-4.1 82.34-8.2L82.34-8.2Q82.34-11.65 83.39-14.63 84.44-17.6 86.27-19.8 88.09-22 90.52-23.25 92.94-24.5 95.69-24.5L95.69-24.5Q97.84-24.5 99.62-23.93 101.39-23.35 102.64-22.75L102.64-22.75 101.19-17.5Q99.84-18.4 98.17-19.15 96.49-19.9 95.07-20.33 93.64-20.75 92.94-20.75L92.94-20.75Q91.54-20.75 90.42-19.35 89.29-17.95 88.64-15.6 87.99-13.25 87.99-10.35L87.99-10.35Q87.99-7.45 88.42-5.95 88.84-4.45 89.79-4.45L89.79-4.45Q90.44-4.45 91.97-5.85 93.49-7.25 95.64-10.6 97.79-13.95 100.24-19.85L100.24-19.85 101.64-15.4Q98.94-9.4 96.52-5.93 94.09-2.45 91.89-1 89.69 0.45 87.54 0.45ZM114.29 0.8L110.79 0.8Q109.94 0.8 109.69-0.18 109.44-1.15 109.44-2.2L109.44-2.2Q109.44-4 109.61-5.4 109.79-6.8 109.99-8.5L109.99-8.5 111.79-24.55 115.29-24.55Q116.29-24.55 116.59-23.45 116.89-22.35 116.89-20.95L116.89-20.95Q116.89-20.25 116.79-19.48 116.69-18.7 116.49-17.1L116.49-17.1 115.54-8.95Q115.24-6.35 114.99-4.6 114.74-2.85 114.59-1.6 114.44-0.35 114.29 0.8L114.29 0.8ZM115.19-27.4L115.19-27.4Q113.79-27.4 112.77-28.35 111.74-29.3 111.74-30.85L111.74-30.85Q111.74-32.7 112.94-33.73 114.14-34.75 115.69-34.75L115.69-34.75Q117.14-34.75 118.12-33.9 119.09-33.05 119.09-31.35L119.09-31.35Q119.09-29.65 117.94-28.53 116.79-27.4 115.19-27.4ZM140.64 0.5L137.09 0.5Q136.54 0.5 136.26-0.03 135.99-0.55 135.91-1.2 135.84-1.85 135.84-2.25L135.84-2.25Q135.84-2.95 135.94-4.05 136.04-5.15 136.19-6.38 136.34-7.6 136.49-8.5L136.49-8.5 137.34-13.7Q137.49-14.7 137.64-15.58 137.79-16.45 137.79-17.45L137.79-17.45Q137.79-18.2 137.49-18.6 137.19-19 136.69-19L136.69-19Q136.04-19 134.54-17.75 133.04-16.5 131.34-14.18 129.64-11.85 128.26-8.6 126.89-5.35 126.49-1.35L126.49-1.35 125.19-8.75Q126.69-13.1 128.56-16.1 130.44-19.1 132.39-20.95 134.34-22.8 136.16-23.65 137.99-24.5 139.39-24.5L139.39-24.5Q140.89-24.5 141.81-23.95 142.74-23.4 143.16-22.43 143.59-21.45 143.59-20.15L143.59-20.15Q143.59-18.9 143.41-17.68 143.24-16.45 143.04-15.15L143.04-15.15 140.64 0.5ZM122.14 0.7L122.14 0.7Q121.49 0.7 121.16 0.48 120.84 0.25 120.81-0.7 120.79-1.65 121.04-3.75L121.04-3.75 123.39-24.55 126.89-24.55Q127.64-24.55 128.24-23.45 128.84-22.35 128.84-20.95L128.84-20.95Q128.84-20.3 128.46-18.93 128.09-17.55 127.59-16.03 127.09-14.5 126.69-13.35L126.69-13.35 125.39-9.25 127.24-9.55 126.44-1.35Q126.39-0.85 125.84-0.45 125.29-0.05 124.54 0.2 123.79 0.45 123.11 0.58 122.44 0.7 122.14 0.7ZM152.54 0.8L149.04 0.8Q148.19 0.8 147.94-0.18 147.69-1.15 147.69-2.2L147.69-2.2Q147.69-4 147.86-5.4 148.04-6.8 148.24-8.5L148.24-8.5 150.04-24.55 153.54-24.55Q154.54-24.55 154.84-23.45 155.14-22.35 155.14-20.95L155.14-20.95Q155.14-20.25 155.04-19.48 154.94-18.7 154.74-17.1L154.74-17.1 153.79-8.95Q153.49-6.35 153.24-4.6 152.99-2.85 152.84-1.6 152.69-0.35 152.54 0.8L152.54 0.8ZM153.44-27.4L153.44-27.4Q152.04-27.4 151.01-28.35 149.99-29.3 149.99-30.85L149.99-30.85Q149.99-32.7 151.19-33.73 152.39-34.75 153.94-34.75L153.94-34.75Q155.39-34.75 156.36-33.9 157.34-33.05 157.34-31.35L157.34-31.35Q157.34-29.65 156.19-28.53 155.04-27.4 153.44-27.4ZM159.53 10.95L159.53 10.95Q158.88 10.95 158.58 10.53 158.28 10.1 158.28 9.4L158.28 9.4Q158.28 8.35 158.43 7.1L158.43 7.1 162.13-23.55Q162.83-29.35 165.76-32.08 168.68-34.8 173.68-34.8L173.68-34.8Q175.98-34.8 176.96-34.08 177.93-33.35 177.93-31.9L177.93-31.9Q177.93-31.05 177.73-30.3 177.53-29.55 177.18-29.08 176.83-28.6 176.33-28.6L176.33-28.6Q175.93-28.6 175.13-29.23 174.33-29.85 173.28-30.45 172.23-31.05 170.98-31.05L170.98-31.05Q169.33-31.05 168.71-29.38 168.08-27.7 167.78-24.95L167.78-24.95 166.13-10.4Q165.78-7.45 165.53-4.42 165.28-1.4 165.03 1.2L165.03 1.2Q164.88 2.45 164.26 4.1 163.63 5.75 162.73 7.33 161.83 8.9 160.98 9.93 160.13 10.95 159.53 10.95ZM171.08-20.25L159.28-20.25Q158.93-20.25 158.78-20.5 158.63-20.75 158.73-21.1L158.73-21.1 159.08-22.05Q159.43-23.05 159.83-23.4 160.23-23.75 161.78-23.75L161.78-23.75 173.78-23.75Q174.43-23.75 174.18-22.95L174.18-22.95Q173.68-21.55 173.13-20.9 172.58-20.25 171.08-20.25L171.08-20.25ZM181.83 11.05L181.83 11.05Q179.68 11.05 178.03 10.38 176.38 9.7 175.43 8.2 174.48 6.7 174.48 4.2L174.48 4.2Q174.48 3.7 174.66 3.53 174.83 3.35 175.03 3.35L175.03 3.35Q175.28 3.35 175.63 3.55 175.98 3.75 176.63 4.15L176.63 4.15Q177.53 4.75 178.71 5.43 179.88 6.1 181.23 6.6 182.58 7.1 183.88 7.1L183.88 7.1Q185.18 7.1 186.28 6.28 187.38 5.45 188.36 3.4 189.33 1.35 190.23-2.25L190.23-2.25 193.03-13.65 193.33-13.7Q191.48-8.8 189.06-5.63 186.63-2.45 184.16-0.93 181.68 0.6 179.68 0.6L179.68 0.6Q177.58 0.6 176.58-0.55 175.58-1.7 175.58-3.75L175.58-3.75Q175.58-4.75 175.71-5.95 175.83-7.15 176.13-9.7L176.13-9.7 177.98-24.55 181.48-24.55Q182.33-24.55 182.78-23.58 183.23-22.6 183.23-21.2L183.23-21.2Q183.23-20.2 183.13-19.43 183.03-18.65 182.86-17.68 182.68-16.7 182.38-14.9L182.38-14.9 181.68-10.6Q181.48-9.2 181.36-8.13 181.23-7.05 181.23-6.35L181.23-6.35Q181.23-5.3 181.46-4.78 181.68-4.25 182.48-4.25L182.48-4.25Q183.33-4.25 184.46-5.35 185.58-6.45 186.78-8.2 187.98-9.95 189.01-11.95 190.03-13.95 190.68-15.83 191.33-17.7 191.33-18.95L191.33-18.95Q191.33-19.8 191.18-20.78 191.03-21.75 191.03-22.5L191.03-22.5Q191.03-23.1 192.01-23.58 192.98-24.05 194.21-24.3 195.43-24.55 196.13-24.55L196.13-24.55Q196.83-24.55 197.26-23.9 197.68-23.25 197.68-21.45L197.68-21.45Q197.68-20.6 197.41-18.93 197.13-17.25 197.03-15.8L197.03-15.8 195.78-1.5Q195.48 1.75 194.16 4.13 192.83 6.5 190.83 8.03 188.83 9.55 186.48 10.3 184.13 11.05 181.83 11.05ZM207.93 0.8L207.93 0.8Q204.13 0.8 201.95-0.38 199.78-1.55 199.78-3.55L199.78-3.55Q199.78-4.45 200.05-5.23 200.33-6 200.88-6L200.88-6Q201.08-6 201.33-5.9 201.58-5.8 202.28-5.35L202.28-5.35Q203.28-4.7 204.5-4.15 205.73-3.6 207-3.28 208.28-2.95 209.38-2.95L209.38-2.95Q210.98-2.95 211.7-3.73 212.43-4.5 212.43-5.8L212.43-5.8Q212.43-6.75 211.85-7.38 211.28-8 210.03-8.8L210.03-8.8 206.93-10.8Q204.98-12.05 203.65-13.48 202.33-14.9 202.33-17.2L202.33-17.2Q202.33-20.45 204.83-22.48 207.33-24.5 211.88-24.5L211.88-24.5Q215.08-24.5 216.58-23.85 218.08-23.2 218.08-21.6L218.08-21.6Q218.08-20.35 217.7-19.5 217.33-18.65 216.68-18.65L216.68-18.65Q216.48-18.65 216.15-18.75 215.83-18.85 215.58-19L215.58-19Q215.18-19.25 214.33-19.7 213.48-20.15 212.43-20.53 211.38-20.9 210.23-20.9L210.23-20.9Q209.08-20.9 208.35-20.23 207.63-19.55 207.63-18.4L207.63-18.4Q207.63-17.45 208.23-16.8 208.83-16.15 210.23-15.45L210.23-15.45 213.48-13.95Q215.53-13 216.8-11.73 218.08-10.45 218.08-7.95L218.08-7.95Q218.08-5 216.65-3.05 215.23-1.1 212.9-0.15 210.58 0.8 207.93 0.8ZM226.38 0.8L226.38 0.8Q223.98 0.8 223-0.6 222.03-2 222.38-5L222.38-5 224.33-20.25 222.73-20.25Q221.98-20.25 221.98-21.05L221.98-21.05Q221.98-21.55 222.65-22.5 223.33-23.45 224.38-24.6 225.43-25.75 226.55-26.8 227.68-27.85 228.63-28.53 229.58-29.2 230.08-29.2L230.08-29.2Q230.63-29.2 230.83-28.78 231.03-28.35 230.93-27.7L230.93-27.7 230.48-23.75 236.08-23.75Q236.83-23.75 236.95-23.5 237.08-23.25 236.88-22.7L236.88-22.7Q236.28-21 235.75-20.63 235.23-20.25 233.83-20.25L233.83-20.25 229.83-20.25 228.58-9.55Q228.48-8.6 228.4-7.75 228.33-6.9 228.33-6.2L228.33-6.2Q228.33-5.05 228.88-4.58 229.43-4.1 230.68-4.1L230.68-4.1Q231.88-4.1 232.75-4.6 233.63-5.1 233.98-5.1L233.98-5.1Q234.38-5.1 234.38-4.6L234.38-4.6Q234.38-4.1 233.85-3.2 233.33-2.3 232.3-1.38 231.28-0.45 229.78 0.18 228.28 0.8 226.38 0.8ZM242.87 0.65L242.87 0.65Q240.92 0.65 239.85-0.43 238.77-1.5 238.77-3.65L238.77-3.65Q238.77-4.4 238.8-5.15 238.82-5.9 238.95-6.95 239.07-8 239.27-9.65L239.27-9.65 241.17-24.55 244.67-24.55Q245.52-24.55 245.8-23.58 246.07-22.6 246.07-21.2L246.07-21.2Q246.07-20.15 245.92-18.45 245.77-16.75 245.47-14.7L245.47-14.7 244.87-10.6Q244.67-9.2 244.6-8.1 244.52-7 244.52-6.3L244.52-6.3Q244.52-5.3 244.75-4.78 244.97-4.25 245.62-4.25L245.62-4.25Q246.37-4.25 247.52-5.35 248.67-6.45 249.95-8.25 251.22-10.05 252.32-12.13 253.42-14.2 254.12-16.15 254.82-18.1 254.82-19.5L254.82-19.5Q254.82-20.65 254.55-21.43 254.27-22.2 254.32-22.7L254.32-22.7Q254.32-23.15 254.9-23.5 255.47-23.85 256.27-24.08 257.07-24.3 257.87-24.43 258.67-24.55 259.12-24.55L259.12-24.55Q259.97-24.55 260.45-23.55 260.92-22.55 260.72-20.7L260.72-20.7 258.37 0.5 254.87 0.5Q254.27 0.5 253.92-0.13 253.57-0.75 253.45-1.55 253.32-2.35 253.32-2.75L253.32-2.75Q253.32-3.9 253.65-5.25 253.97-6.6 254.6-8.7 255.22-10.8 256.12-14.1L256.12-14.1 256.12-13.25Q254.17-8.15 251.82-5.1 249.47-2.05 247.17-0.7 244.87 0.65 242.87 0.65ZM269.12 0.8L269.12 0.8Q266.42 0.8 265.25-1.4 264.07-3.6 264.07-7.85L264.07-7.85Q264.07-11.5 265.1-14.55 266.12-17.6 267.97-19.83 269.82-22.05 272.27-23.28 274.72-24.5 277.57-24.5L277.57-24.5Q279.32-24.5 281.05-23.93 282.77-23.35 284.02-22.75L284.02-22.75 282.42-17.85Q281.07-18.75 279.6-19.4 278.12-20.05 276.9-20.4 275.67-20.75 275.02-20.75L275.02-20.75Q273.57-20.75 272.37-19.38 271.17-18 270.45-15.58 269.72-13.15 269.72-10L269.72-10Q269.72-7.1 270.15-5.6 270.57-4.1 271.52-4.1L271.52-4.1Q272.32-4.1 274-5.58 275.67-7.05 277.9-10.5 280.12-13.95 282.57-19.85L282.57-19.85 284.02-15.4Q281.37-9.4 278.77-5.85 276.17-2.3 273.75-0.75 271.32 0.8 269.12 0.8ZM285.82 0.5L282.32 0.5Q281.77 0.5 281.37-0.13 280.97-0.75 280.77-1.65 280.57-2.55 280.57-3.3L280.57-3.3Q280.57-4.55 281-6.15 281.42-7.75 282.07-10.2L282.07-10.2 283.07-13.95 281.62-15.55 282.17-20.8 282.87-21.65 283.27-34.8 287.17-34.8Q287.92-34.8 288.4-34.15 288.87-33.5 289.1-32.63 289.32-31.75 289.32-30.95L289.32-30.95Q289.32-30.45 289.27-29.83 289.22-29.2 289.07-28.13 288.92-27.05 288.62-25.15L288.62-25.15 286.97-13.65Q286.62-11.25 286.37-8.75 286.12-6.25 286-3.9 285.87-1.55 285.82 0.5L285.82 0.5ZM297.32 0.8L293.82 0.8Q292.97 0.8 292.72-0.18 292.47-1.15 292.47-2.2L292.47-2.2Q292.47-4 292.64-5.4 292.82-6.8 293.02-8.5L293.02-8.5 294.82-24.55 298.32-24.55Q299.32-24.55 299.62-23.45 299.92-22.35 299.92-20.95L299.92-20.95Q299.92-20.25 299.82-19.48 299.72-18.7 299.52-17.1L299.52-17.1 298.57-8.95Q298.27-6.35 298.02-4.6 297.77-2.85 297.62-1.6 297.47-0.35 297.32 0.8L297.32 0.8ZM298.22-27.4L298.22-27.4Q296.82-27.4 295.79-28.35 294.77-29.3 294.77-30.85L294.77-30.85Q294.77-32.7 295.97-33.73 297.17-34.75 298.72-34.75L298.72-34.75Q300.17-34.75 301.14-33.9 302.12-33.05 302.12-31.35L302.12-31.35Q302.12-29.65 300.97-28.53 299.82-27.4 298.22-27.4ZM312.12 0.75L312.12 0.75Q307.82 0.75 305.44-1.78 303.07-4.3 303.07-9.2L303.07-9.2Q303.07-12.45 304.14-15.23 305.22-18 307.07-20.1 308.92-22.2 311.34-23.38 313.77-24.55 316.47-24.55L316.47-24.55Q320.77-24.55 323.04-22 325.32-19.45 325.32-14.3L325.32-14.3Q325.32-11.2 324.29-8.47 323.27-5.75 321.47-3.68 319.67-1.6 317.27-0.43 314.87 0.75 312.12 0.75ZM313.32-3L313.32-3Q315.22-3 316.59-4.4 317.97-5.8 318.69-8.25 319.42-10.7 319.42-13.75L319.42-13.75Q319.42-17 318.44-18.9 317.47-20.8 315.22-20.8L315.22-20.8Q313.37-20.8 311.94-19.4 310.52-18 309.74-15.58 308.97-13.15 308.97-10.05L308.97-10.05Q308.97-6.6 310.07-4.8 311.17-3 313.32-3Z" fill="#03424c" data-fill-palette-color="primary"></path></g></svg></g></svg></g></svg></g></svg></g><g><svg viewBox="0 0 91.70793672854681 77.92912358208956" height="77.92912358208956" width="91.70793672854681"><g><svg xmlns="http://www.w3.org/2000/svg" xmlns:xlink="http://www.w3.org/1999/xlink" version="1.1" x="0" y="0" viewBox="11.5996094 17.3691406 76.80078119999999 65.26171869999999" style="enable-background:new 0 0 100 100;" xml:space="preserve" height="77.92912358208956" width="91.70793672854681" class="icon-icon-0" data-fill-palette-color="accent" id="icon-0"><path d="M50 44.087c-3.261 0-5.913 2.652-5.913 5.913S46.739 55.913 50 55.913 55.913 53.26 55.913 50 53.261 44.087 50 44.087zM50 54.113c-2.268 0-4.112-1.845-4.112-4.113S47.732 45.887 50 45.887 54.112 47.732 54.112 50 52.268 54.113 50 54.113z" fill="#f56607" data-fill-palette-color="accent"></path><path d="M64.225 41.939H59.641c-0.497 0-0.9 0.403-0.901 0.9s0.403 0.9 0.901 0.9h4.584c0.497 0 0.9-0.403 0.9-0.9S64.722 41.939 64.225 41.939z" fill="#f56607" data-fill-palette-color="accent"></path><path d="M87.5 17.369h-75c-0.497 0-0.9 0.403-0.9 0.9V81.731c0 0.497 0.403 0.9 0.9 0.9h34.907 5.186H87.5c0.497 0 0.9-0.403 0.9-0.9V18.269C88.4 17.772 87.997 17.369 87.5 17.369zM51.692 80.831h-3.384V63.504h3.384V80.831zM47.407 61.704H30.264V38.296h14.098 11.276 14.098v23.408H52.593 47.407zM54.737 33.308v3.188h-9.474v-3.188H54.737zM45.263 31.508v-3.188h9.474v3.188H45.263zM86.6 80.831H53.493V63.504h17.144c0.497 0 0.9-0.403 0.9-0.9V37.396c0-0.497-0.403-0.9-0.9-0.9H56.538v-4.088-4.988c0-0.497-0.403-0.9-0.9-0.899H44.362c-0.497 0-0.9 0.403-0.9 0.899v4.988 4.088H29.363c-0.497 0-0.9 0.403-0.9 0.9v25.208c0 0.497 0.403 0.9 0.9 0.9h17.144v17.327H13.4V19.169h73.2V80.831z" fill="#f56607" data-fill-palette-color="accent"></path></svg></g></svg></g></svg></g><defs></defs></svg><rect width="395.52" height="61.57855582075291" fill="none" stroke="none" visibility="hidden"></rect></g></svg></g></svg>